# xmcd
#
# Track frame offsets: 
#        150
#        15187
#        31722
#        50547
#        63260
#        78357
#        95975
#        113592
#        131492
#        149032
#        164212
#        184167
#        201705
#        215162
#        231412
#        248592
#        264687
#        281622
#        296600
#
# Disc length: 4168 seconds
#
# Revision: 2
# Processed by: cddbd v1.5.2PL0 Copyright (c) Steve Scherf et al.
# Submitted via: ExactAudioCopy v0.95b2
#
DISCID=29104613
DTITLE=Various Artist - Radioactivity 9909
DYEAR=1999
DGENRE=Top 40
TTITLE0=Shania Twain - You've Got A Way
TTITLE1=K-Ci and Jo Jo - Tell Me It's Real
TTITLE2=Placebo feat David Bowie - Without You I'm Nothing
TTITLE3=Chris Isaak - Baby Did A Bad Bad Thing
TTITLE4=Vitamin C - Smile
TTITLE5=Powderfinger - Passenger
TTITLE6=Mark Lizotte - D.I.G.
TTITLE7=Santana feat Rob Thomas - Smooth
TTITLE8=Regurgitator - Happiness (Rotting My Brain)
TTITLE9=Garbage - When I Grow Up
TTITLE10=Jebediah - Animal
TTITLE11=Monica - Street Symphony
TTITLE12=Jungle Brothers - V.I.P.
TTITLE13=Christina Aguilera - Genie In A Bottle
TTITLE14=Puff Daddy feat Hurricane G - P.E. 2000
TTITLE15=Enrique Iglesias - Bailamos
TTITLE16=Marcia Hines - Makin' My Way Back
TTITLE17=Powerhouse feat Duane Harden - What You Need
TTITLE18=Bliss Inc. - Faith
EXTD=
EXTT0=
EXTT1=
EXTT2=
EXTT3=
EXTT4=
EXTT5=
EXTT6=
EXTT7=
EXTT8=
EXTT9=
EXTT10=
EXTT11=
EXTT12=
EXTT13=
EXTT14=
EXTT15=
EXTT16=
EXTT17=
EXTT18=
PLAYORDER=
